<svg xmlns="http://www.w3.org/2000/svg" width="1280" height="342" viewBox="0 0 1280 342" role="img" aria-labelledby="title desc">
<title id="title">方法概览</title><desc id="desc">全局 RGB 增益、空间残差与细化，用于去雾和后续语义分割。</desc>
<defs><marker id="arrow" markerWidth="8" markerHeight="8" refX="6" refY="4" orient="auto"><path d="M0,1 L6,4 L0,7" fill="none" stroke="#94a3b8" stroke-width="1.5"/></marker></defs>
<rect x="1" y="1" width="1278" height="340" rx="20" fill="#f8fafc" stroke="#e2e8f0"/>
<g font-family="Segoe UI, Microsoft YaHei, Arial, sans-serif">
<text x="32" y="39" text-anchor="start" font-size="15" font-weight="600" fill="#64748b">方法概览</text>
<text x="32" y="71" text-anchor="start" font-size="24" font-weight="600" fill="#0f172a">从雾图到颜色恢复，再到道路分割</text>
<rect x="32" y="108" width="140" height="142" rx="14" fill="#ffffff" stroke="#cbd5e1"/>
<rect x="218" y="108" width="286" height="142" rx="14" fill="#ecfdf5" stroke="#99d5c5"/>
<rect x="550" y="108" width="154" height="142" rx="14" fill="#ffffff" stroke="#cbd5e1"/>
<rect x="816" y="108" width="270" height="142" rx="14" fill="#eff6ff" stroke="#bfdbfe"/>
<rect x="1132" y="108" width="116" height="142" rx="14" fill="#ffffff" stroke="#cbd5e1"/>
<path d="M180,179 H208" fill="none" stroke="#94a3b8" stroke-width="2" marker-end="url(#arrow)"/>
<path d="M512,179 H540" fill="none" stroke="#94a3b8" stroke-width="2" marker-end="url(#arrow)"/>
<path d="M712,179 H806" fill="none" stroke="#94a3b8" stroke-width="2" marker-end="url(#arrow)"/>
<path d="M1094,179 H1122" fill="none" stroke="#94a3b8" stroke-width="2" marker-end="url(#arrow)"/>
<text x="102" y="158" text-anchor="middle" font-size="20" font-weight="600" fill="#0f172a">雾图输入</text>
<text x="102" y="194" text-anchor="middle" font-size="15" font-weight="400" fill="#64748b">RGB · [0, 1]</text>
<text x="361" y="146" text-anchor="middle" font-size="24" font-weight="600" fill="#065f46">ColorAwareUNet</text>
<text x="361" y="181" text-anchor="middle" font-size="18" font-weight="400" fill="#047857">全局 RGB 增益</text>
<text x="361" y="216" text-anchor="middle" font-size="16" font-weight="400" fill="#047857">空间残差 + 细化</text>
<text x="627" y="158" text-anchor="middle" font-size="18" font-weight="600" fill="#0f172a">去雾图</text>
<text x="627" y="194" text-anchor="middle" font-size="16" font-weight="400" fill="#64748b">[0, 1]</text>
<text x="760" y="142" text-anchor="middle" font-size="13" font-weight="400" fill="#64748b">ImageNet</text>
<text x="760" y="160" text-anchor="middle" font-size="13" font-weight="400" fill="#64748b">归一化</text>
<text x="951" y="146" text-anchor="middle" font-size="24" font-weight="600" fill="#1e40af">LiteAttentionUNet</text>
<text x="951" y="181" text-anchor="middle" font-size="16" font-weight="400" fill="#1d4ed8">深度可分离卷积</text>
<text x="951" y="216" text-anchor="middle" font-size="17" font-weight="400" fill="#1d4ed8">注意力门控</text>
<text x="1190" y="158" text-anchor="middle" font-size="20" font-weight="600" fill="#0f172a">分割标注</text>
<text x="1190" y="194" text-anchor="middle" font-size="14" font-weight="400" fill="#64748b">背景 / 道路</text>
<path d="M32,274 H1248" stroke="#e2e8f0"/>
<text x="32" y="311" text-anchor="start" font-size="15" font-weight="600" fill="#047857">01  去雾预训练</text>
<text x="492" y="311" text-anchor="start" font-size="15" font-weight="600" fill="#1d4ed8">02  分割训练</text>
<text x="966" y="311" text-anchor="start" font-size="15" font-weight="600" fill="#475569">03  联合微调</text>
</g></svg>
